<svg width="25" height="23" viewBox="0 0 25 23" fill="none" xmlns="http://www.w3.org/2000/svg">
<path d="M0.896307 22V0.181818H9.50426C11.1591 0.181818 12.5689 0.497869 13.7337 1.12997C14.8984 1.75497 15.7862 2.625 16.397 3.74006C17.0149 4.84801 17.3239 6.12642 17.3239 7.57528C17.3239 9.02415 17.0114 10.3026 16.3864 11.4105C15.7614 12.5185 14.8558 13.3814 13.6697 13.9993C12.4908 14.6172 11.0632 14.9261 9.38707 14.9261H3.90057V11.2294H8.64134C9.52912 11.2294 10.2607 11.0767 10.8359 10.7713C11.4183 10.4588 11.8516 10.0291 12.1357 9.48224C12.4268 8.92827 12.5724 8.29261 12.5724 7.57528C12.5724 6.85085 12.4268 6.21875 12.1357 5.67898C11.8516 5.1321 11.4183 4.70952 10.8359 4.41122C10.2536 4.10582 9.51491 3.95312 8.62003 3.95312H5.50923V22H0.896307ZM21.8622 22.277C21.1591 22.277 20.5554 22.0284 20.0511 21.5312C19.554 21.027 19.3054 20.4233 19.3054 19.7202C19.3054 19.0241 19.554 18.4276 20.0511 17.9304C20.5554 17.4332 21.1591 17.1847 21.8622 17.1847C22.544 17.1847 23.1406 17.4332 23.652 17.9304C24.1634 18.4276 24.419 19.0241 24.419 19.7202C24.419 20.1889 24.2983 20.6186 24.0568 21.0092C23.8224 21.3928 23.5135 21.7017 23.13 21.9361C22.7464 22.1634 22.3239 22.277 21.8622 22.277Z" fill="#08546C"/>
</svg>
