<svg width="50" height="37" viewBox="0 0 50 37" fill="none" xmlns="http://www.w3.org/2000/svg">
<path d="M14.8089 1.09091V36H8.48509V7.24432H8.28054L0.115767 12.4602V6.66477L8.7919 1.09091H14.8089ZM36.4567 36.4773C34.7862 36.4659 33.1555 36.1761 31.5646 35.608C29.9737 35.0284 28.5419 34.0909 27.2692 32.7955C25.9964 31.4886 24.9851 29.7557 24.2351 27.5966C23.4851 25.4261 23.1158 22.7386 23.1271 19.5341C23.1271 16.5455 23.4453 13.8807 24.0817 11.5398C24.718 9.19886 25.6328 7.22159 26.826 5.60795C28.0192 3.98295 29.4567 2.74432 31.1385 1.89204C32.8317 1.03977 34.7237 0.613635 36.8146 0.613635C39.0078 0.613635 40.951 1.04545 42.6442 1.90909C44.3487 2.77273 45.7237 3.95454 46.7692 5.45455C47.8146 6.94318 48.4624 8.625 48.7124 10.5H42.4908C42.1726 9.15909 41.5192 8.09091 40.5305 7.29545C39.5533 6.48864 38.3146 6.08523 36.8146 6.08523C34.3942 6.08523 32.5305 7.13636 31.2237 9.23864C29.9283 11.3409 29.2749 14.2273 29.2635 17.8977H29.5021C30.0589 16.8977 30.7805 16.0398 31.6669 15.3239C32.5533 14.608 33.5533 14.0568 34.6669 13.6705C35.7919 13.2727 36.9794 13.0739 38.2294 13.0739C40.2749 13.0739 42.1101 13.5625 43.7351 14.5398C45.3714 15.517 46.6669 16.8636 47.6215 18.5795C48.576 20.2841 49.0476 22.2386 49.0362 24.4432C49.0476 26.7386 48.5249 28.8011 47.468 30.6307C46.4112 32.4489 44.9396 33.8807 43.0533 34.9261C41.1669 35.9716 38.968 36.4886 36.4567 36.4773ZM36.4226 31.3636C37.6612 31.3636 38.7692 31.0625 39.7464 30.4602C40.7237 29.858 41.4964 29.0455 42.0646 28.0227C42.6328 27 42.9112 25.8523 42.8999 24.5795C42.9112 23.3295 42.6385 22.1989 42.0817 21.1875C41.5362 20.1761 40.7805 19.375 39.8146 18.7841C38.8487 18.1932 37.7464 17.8977 36.5078 17.8977C35.5874 17.8977 34.7294 18.0739 33.9339 18.4261C33.1385 18.7784 32.4453 19.267 31.8544 19.892C31.2635 20.5057 30.7976 21.2216 30.4567 22.0398C30.1271 22.8466 29.9567 23.7102 29.9453 24.6307C29.9567 25.8466 30.2408 26.9659 30.7976 27.9886C31.3544 29.0114 32.1214 29.8295 33.0987 30.4432C34.076 31.0568 35.1839 31.3636 36.4226 31.3636Z" fill="#08546C"/>
</svg>
