<svg width="122" height="37" viewBox="0 0 122 37" fill="none" xmlns="http://www.w3.org/2000/svg">
<path d="M13.6307 36.4773C11.1761 36.4773 8.99432 36.0568 7.08523 35.2159C5.1875 34.375 3.6875 33.2045 2.58523 31.7045C1.48295 30.2045 0.897727 28.4716 0.829546 26.5057H7.23864C7.29545 27.4489 7.60795 28.2727 8.17614 28.9773C8.74432 29.6705 9.5 30.2102 10.4432 30.5966C11.3864 30.983 12.4432 31.1761 13.6136 31.1761C14.8636 31.1761 15.9716 30.9602 16.9375 30.5284C17.9034 30.0852 18.6591 29.4716 19.2045 28.6875C19.75 27.9034 20.017 27 20.0057 25.9773C20.017 24.9205 19.7443 23.9886 19.1875 23.1818C18.6307 22.375 17.8239 21.7443 16.767 21.2898C15.7216 20.8352 14.4602 20.608 12.983 20.608H9.89773V15.733H12.983C14.1989 15.733 15.2614 15.5227 16.1705 15.1023C17.0909 14.6818 17.8125 14.0909 18.3352 13.3295C18.858 12.5568 19.1136 11.6648 19.1023 10.6534C19.1136 9.66477 18.892 8.80682 18.4375 8.07955C17.9943 7.34091 17.3636 6.76704 16.5455 6.35795C15.7386 5.94886 14.7898 5.74432 13.6989 5.74432C12.6307 5.74432 11.642 5.9375 10.733 6.32386C9.82386 6.71023 9.09091 7.26136 8.53409 7.97727C7.97727 8.68182 7.68182 9.52273 7.64773 10.5H1.5625C1.60795 8.54545 2.17045 6.82955 3.25 5.35227C4.34091 3.86364 5.79545 2.70454 7.61364 1.875C9.43182 1.03409 11.4716 0.613635 13.733 0.613635C16.0625 0.613635 18.0852 1.05114 19.8011 1.92614C21.5284 2.78977 22.8636 3.95454 23.8068 5.42045C24.75 6.88636 25.2216 8.50568 25.2216 10.2784C25.233 12.2443 24.6534 13.892 23.483 15.2216C22.3239 16.5511 20.8011 17.4205 18.9148 17.8295V18.1023C21.3693 18.4432 23.25 19.3523 24.5568 20.8295C25.875 22.2955 26.5284 24.1193 26.517 26.3011C26.517 28.2557 25.9602 30.0057 24.8466 31.5511C23.7443 33.0852 22.2216 34.2898 20.2784 35.1648C18.3466 36.0398 16.1307 36.4773 13.6307 36.4773ZM45.2713 36.6648C42.4645 36.6648 40.0554 35.9545 38.044 34.5341C36.044 33.1023 34.5043 31.0398 33.4247 28.3466C32.3565 25.642 31.8224 22.3864 31.8224 18.5795C31.8338 14.7727 32.3736 11.5341 33.4418 8.86364C34.5213 6.18182 36.0611 4.13636 38.0611 2.72727C40.0724 1.31818 42.4759 0.613635 45.2713 0.613635C48.0668 0.613635 50.4702 1.31818 52.4815 2.72727C54.4929 4.13636 56.0327 6.18182 57.1009 8.86364C58.1804 11.5455 58.7202 14.7841 58.7202 18.5795C58.7202 22.3977 58.1804 25.6591 57.1009 28.3636C56.0327 31.0568 54.4929 33.1136 52.4815 34.5341C50.4815 35.9545 48.0781 36.6648 45.2713 36.6648ZM45.2713 31.3295C47.4531 31.3295 49.1747 30.2557 50.4361 28.108C51.7088 25.9489 52.3452 22.7727 52.3452 18.5795C52.3452 15.8068 52.0554 13.4773 51.4759 11.5909C50.8963 9.70454 50.0781 8.28409 49.0213 7.32955C47.9645 6.36364 46.7145 5.88068 45.2713 5.88068C43.1009 5.88068 41.3849 6.96023 40.1236 9.11932C38.8622 11.267 38.2259 14.4205 38.2145 18.5795C38.2031 21.3636 38.4815 23.7045 39.0497 25.6023C39.6293 27.5 40.4474 28.9318 41.5043 29.8977C42.5611 30.8523 43.8168 31.3295 45.2713 31.3295ZM77.2869 36.6648C74.4801 36.6648 72.071 35.9545 70.0597 34.5341C68.0597 33.1023 66.5199 31.0398 65.4403 28.3466C64.3722 25.642 63.8381 22.3864 63.8381 18.5795C63.8494 14.7727 64.3892 11.5341 65.4574 8.86364C66.5369 6.18182 68.0767 4.13636 70.0767 2.72727C72.0881 1.31818 74.4915 0.613635 77.2869 0.613635C80.0824 0.613635 82.4858 1.31818 84.4972 2.72727C86.5085 4.13636 88.0483 6.18182 89.1165 8.86364C90.196 11.5455 90.7358 14.7841 90.7358 18.5795C90.7358 22.3977 90.196 25.6591 89.1165 28.3636C88.0483 31.0568 86.5085 33.1136 84.4972 34.5341C82.4972 35.9545 80.0938 36.6648 77.2869 36.6648ZM77.2869 31.3295C79.4688 31.3295 81.1903 30.2557 82.4517 28.108C83.7244 25.9489 84.3608 22.7727 84.3608 18.5795C84.3608 15.8068 84.071 13.4773 83.4915 11.5909C82.9119 9.70454 82.0938 8.28409 81.0369 7.32955C79.9801 6.36364 78.7301 5.88068 77.2869 5.88068C75.1165 5.88068 73.4006 6.96023 72.1392 9.11932C70.8778 11.267 70.2415 14.4205 70.2301 18.5795C70.2188 21.3636 70.4972 23.7045 71.0653 25.6023C71.6449 27.5 72.4631 28.9318 73.5199 29.8977C74.5767 30.8523 75.8324 31.3295 77.2869 31.3295ZM106.763 30.4091V6.81818H112.115V30.4091H106.763ZM97.6435 21.2898V15.9375H121.234V21.2898H97.6435Z" fill="#08546C"/>
</svg>
