<svg width="87" height="37" viewBox="0 0 87 37" fill="none" xmlns="http://www.w3.org/2000/svg">
<path d="M3.36603 36L18.2126 6.61364V6.375H0.97967V1.09091H24.7581V6.49432L9.92853 36H3.36603ZM42.4129 36.6648C39.6061 36.6648 37.197 35.9545 35.1856 34.5341C33.1856 33.1023 31.6459 31.0398 30.5663 28.3466C29.4981 25.642 28.964 22.3864 28.964 18.5795C28.9754 14.7727 29.5152 11.5341 30.5834 8.86364C31.6629 6.18182 33.2027 4.13636 35.2027 2.72727C37.214 1.31818 39.6175 0.613635 42.4129 0.613635C45.2084 0.613635 47.6118 1.31818 49.6231 2.72727C51.6345 4.13636 53.1743 6.18182 54.2425 8.86364C55.322 11.5455 55.8618 14.7841 55.8618 18.5795C55.8618 22.3977 55.322 25.6591 54.2425 28.3636C53.1743 31.0568 51.6345 33.1136 49.6231 34.5341C47.6231 35.9545 45.2197 36.6648 42.4129 36.6648ZM42.4129 31.3295C44.5947 31.3295 46.3163 30.2557 47.5777 28.108C48.8504 25.9489 49.4868 22.7727 49.4868 18.5795C49.4868 15.8068 49.197 13.4773 48.6175 11.5909C48.0379 9.70454 47.2197 8.28409 46.1629 7.32955C45.1061 6.36364 43.8561 5.88068 42.4129 5.88068C40.2425 5.88068 38.5265 6.96023 37.2652 9.11932C36.0038 11.267 35.3675 14.4205 35.3561 18.5795C35.3447 21.3636 35.6231 23.7045 36.1913 25.6023C36.7709 27.5 37.589 28.9318 38.6459 29.8977C39.7027 30.8523 40.9584 31.3295 42.4129 31.3295ZM71.8888 30.4091V6.81818H77.241V30.4091H71.8888ZM62.7694 21.2898V15.9375H86.3604V21.2898H62.7694Z" fill="#08546C"/>
</svg>
