<svg width="27" height="37" viewBox="0 0 27 37" fill="none" xmlns="http://www.w3.org/2000/svg">
<path d="M13.735 36.4773C11.2009 36.4773 8.95091 36.0511 6.985 35.1989C5.03045 34.3466 3.49636 33.1818 2.38272 31.7045C1.28045 30.2159 0.734997 28.5284 0.74636 26.642C0.734997 25.1761 1.05318 23.8295 1.70091 22.6023C2.34863 21.375 3.22363 20.3523 4.32591 19.5341C5.43954 18.7045 6.67818 18.1761 8.04182 17.9489V17.7102C6.24636 17.3125 4.79181 16.3977 3.67818 14.9659C2.57591 13.5227 2.03045 11.858 2.04181 9.97159C2.03045 8.17614 2.53045 6.57386 3.54181 5.16477C4.55318 3.75568 5.93954 2.64773 7.70091 1.84091C9.46227 1.02273 11.4736 0.613635 13.735 0.613635C15.9736 0.613635 17.968 1.02273 19.718 1.84091C21.4793 2.64773 22.8657 3.75568 23.877 5.16477C24.8998 6.57386 25.4111 8.17614 25.4111 9.97159C25.4111 11.858 24.8486 13.5227 23.7236 14.9659C22.61 16.3977 21.1725 17.3125 19.4111 17.7102V17.9489C20.7748 18.1761 22.002 18.7045 23.093 19.5341C24.1952 20.3523 25.0702 21.375 25.718 22.6023C26.377 23.8295 26.7066 25.1761 26.7066 26.642C26.7066 28.5284 26.1498 30.2159 25.0361 31.7045C23.9225 33.1818 22.3884 34.3466 20.4339 35.1989C18.4907 36.0511 16.2577 36.4773 13.735 36.4773ZM13.735 31.6023C15.0418 31.6023 16.1782 31.3807 17.1441 30.9375C18.11 30.483 18.86 29.8466 19.3941 29.0284C19.9282 28.2102 20.2009 27.267 20.2123 26.1989C20.2009 25.0852 19.9111 24.1023 19.343 23.25C18.7861 22.3864 18.0191 21.7102 17.0418 21.2216C16.0759 20.733 14.9736 20.4886 13.735 20.4886C12.485 20.4886 11.3714 20.733 10.3941 21.2216C9.41682 21.7102 8.64409 22.3864 8.07591 23.25C7.51909 24.1023 7.24636 25.0852 7.25772 26.1989C7.24636 27.267 7.50772 28.2102 8.04182 29.0284C8.57591 29.8352 9.32591 30.4659 10.2918 30.9205C11.2691 31.375 12.4168 31.6023 13.735 31.6023ZM13.735 15.6989C14.8032 15.6989 15.7464 15.483 16.5645 15.0511C17.3941 14.6193 18.0475 14.017 18.5248 13.2443C19.002 12.4716 19.2464 11.5795 19.2577 10.5682C19.2464 9.56818 19.0077 8.69318 18.5418 7.94318C18.0759 7.18182 17.4282 6.59659 16.5986 6.1875C15.7691 5.76704 14.8145 5.55682 13.735 5.55682C12.6327 5.55682 11.6611 5.76704 10.8202 6.1875C9.99068 6.59659 9.34295 7.18182 8.87704 7.94318C8.4225 8.69318 8.20091 9.56818 8.21227 10.5682C8.20091 11.5795 8.42818 12.4716 8.89409 13.2443C9.37136 14.0057 10.0248 14.608 10.8543 15.0511C11.6952 15.483 12.6555 15.6989 13.735 15.6989Z" fill="#08546C"/>
</svg>
